# Blender v2.78 (sub 0) OBJ File: ''
# www.blender.org
mtllib dock.mtl
o Cylinder
v 0.000000 0.000200 0.000000
v 0.000000 0.000200 -1.000000
v 0.866025 0.000200 -0.500000
v 0.866025 0.000200 0.500000
v -0.000000 0.000200 1.000000
v -0.866025 0.000200 0.500000
v -0.866025 0.000200 -0.500000
v 0.000000 0.050200 0.000000
v 0.000000 0.050200 -1.000000
v 0.866025 0.050200 -0.500000
v 0.866025 0.050200 0.500000
v -0.000000 0.050200 1.000000
v -0.866025 0.050200 0.500000
v -0.866025 0.050200 -0.500000
vt 0.2069 0.1667
vt 0.3512 0.2500
vt 0.2069 0.3334
vt 0.0626 0.2500
vt 0.0626 0.0834
vt 0.2069 0.0001
vt 0.3512 0.0834
vt 0.2069 0.1667
vt 0.2069 0.0001
vt 0.3512 0.0834
vt 0.0626 0.0834
vt 0.0626 0.2500
vt 0.2069 0.3334
vt 0.3512 0.2500
vt 0.3334 0.3335
vt 0.5000 0.3335
vt 0.5000 0.3418
vt 0.3334 0.3418
vt 0.1667 0.3335
vt 0.1667 0.3418
vt 0.0001 0.3335
vt 0.0001 0.3418
vt 0.8333 0.3335
vt 0.9999 0.3335
vt 0.9999 0.3418
vt 0.8333 0.3418
vt 0.6666 0.3335
vt 0.6666 0.3418
vn 0.0000 -1.0000 0.0000
vn 0.0000 1.0000 0.0000
vn 0.5000 0.0000 -0.8660
vn 1.0000 0.0000 0.0000
vn 0.5000 0.0000 0.8660
vn -0.5000 0.0000 0.8660
vn -1.0000 0.0000 0.0000
vn -0.5000 0.0000 -0.8660
usemtl None
s off
f 1/1/1 2/2/1 3/3/1
f 1/1/1 3/3/1 4/4/1
f 1/1/1 4/4/1 5/5/1
f 1/1/1 5/5/1 6/6/1
f 1/1/1 6/6/1 7/7/1
f 1/1/1 7/7/1 2/2/1
f 8/8/2 10/9/2 9/10/2
f 8/8/2 11/11/2 10/9/2
f 8/8/2 12/12/2 11/11/2
f 8/8/2 13/13/2 12/12/2
f 8/8/2 14/14/2 13/13/2
f 8/8/2 9/10/2 14/14/2
f 3/15/3 2/16/3 9/17/3 10/18/3
f 4/19/4 3/15/4 10/18/4 11/20/4
f 5/21/5 4/19/5 11/20/5 12/22/5
f 6/23/6 5/24/6 12/25/6 13/26/6
f 7/27/7 6/23/7 13/26/7 14/28/7
f 2/16/8 7/27/8 14/28/8 9/17/8
