# Blender v2.78 (sub 0) OBJ File: ''
# www.blender.org
mtllib LowPoly.mtl
o Icosphere.001
v -0.918516 -0.148082 0.355906
v -0.512662 -0.170898 0.432279
v -0.689326 0.315971 0.399035
v -1.154512 0.765719 2.316884
v -1.560366 0.788535 2.240510
v -1.331175 1.252588 2.283639
v -1.509464 -1.736075 3.222906
v -1.828534 -1.736075 3.176384
v -1.738816 -1.736075 3.468276
v 1.897959 -1.736075 3.447058
v 1.620593 -1.736075 3.229938
v 1.926996 -1.736075 3.149056
v 1.436229 1.252588 2.273439
v 1.209477 0.788535 2.323182
v 1.611013 0.765719 2.235097
v 0.695952 0.315971 0.408883
v 0.870736 -0.170898 0.370541
v 0.469200 -0.148082 0.458626
v -0.223608 -0.148082 0.442834
v 0.195049 -0.170898 0.442834
v 0.012812 0.315971 0.442834
v 0.195049 0.765719 2.386892
v -0.223608 0.788535 2.386892
v 0.012812 1.252588 2.386892
v 0.150084 -1.736075 3.329957
v -0.174589 -1.736075 3.343066
v 0.008757 -1.736075 3.609664
v -3.363532 1.319745 0.217075
v -3.494538 1.105657 0.264232
v -3.178094 1.059479 0.243705
v -2.797531 1.181084 1.427881
v -2.666525 1.395171 1.380724
v -2.481086 1.134906 1.407354
v -4.054600 2.105209 1.987304
v -3.961364 2.278759 1.958579
v -3.987581 2.229959 2.138808
v -0.918516 -0.148082 -0.355906
v -0.512662 -0.170898 -0.432279
v -0.689326 0.315971 -0.399035
v -1.154512 0.765719 -2.316884
v -1.560366 0.788535 -2.240510
v -1.331175 1.252588 -2.283639
v -1.509464 -1.736075 -3.222906
v -1.828534 -1.736075 -3.176384
v -1.738816 -1.736075 -3.468276
v 1.897959 -1.736075 -3.447058
v 1.620593 -1.736075 -3.229938
v 1.926996 -1.736075 -3.149056
v 1.436229 1.252588 -2.273439
v 1.209477 0.788535 -2.323182
v 1.611013 0.765719 -2.235097
v 0.695952 0.315971 -0.408883
v 0.870736 -0.170898 -0.370541
v 0.469200 -0.148082 -0.458626
v -0.223608 -0.148082 -0.442834
v 0.195049 -0.170898 -0.442834
v 0.012812 0.315971 -0.442834
v 0.195049 0.765719 -2.386892
v -0.223608 0.788535 -2.386892
v 0.012812 1.252588 -2.386892
v 0.150084 -1.736075 -3.329957
v -0.174589 -1.736075 -3.343066
v 0.008757 -1.736075 -3.609664
v -3.363532 1.319745 -0.217075
v -3.494538 1.105657 -0.264232
v -3.178094 1.059479 -0.243705
v -2.797531 1.181084 -1.427881
v -2.666525 1.395171 -1.380724
v -2.481086 1.134906 -1.407354
v -4.054600 2.105209 -1.987304
v -3.961364 2.278759 -1.958579
v -3.987581 2.229959 -2.138808
v 0.742344 -0.848783 0.000000
v 1.194287 0.003008 0.525720
v 0.002625 -0.525725 0.850640
v -0.733880 -0.852508 -0.000000
v 0.002625 -0.525725 -0.850640
v 1.194287 0.003008 -0.525720
v -0.002625 0.525725 0.850640
v -1.194287 -0.003008 0.525720
v -1.194287 -0.003008 -0.525720
v -0.002625 0.525725 -0.850640
v 0.733880 0.852508 0.000000
v -0.742344 0.848783 -0.000000
v 3.609599 -0.283085 0.000000
v 4.061542 0.568707 0.525720
v 2.869880 0.039974 0.850640
v 2.133374 -0.286809 0.000000
v 2.869880 0.039974 -0.850640
v 4.061542 0.568707 -0.525720
v 2.864630 1.091423 0.850640
v 1.672968 0.562690 0.525720
v 1.672968 0.562690 -0.525720
v 2.864630 1.091423 -0.850640
v 3.601135 1.418206 0.000000
v 2.124910 1.414482 0.000000
v -1.900037 -0.283085 0.000000
v -1.499943 0.568707 0.525720
v -2.639756 0.039974 0.850640
v -3.376261 -0.286809 0.000000
v -2.639756 0.039974 -0.850640
v -1.499943 0.568707 -0.525720
v -2.645006 1.091423 0.850640
v -3.836668 0.562690 0.525720
v -3.836668 0.562690 -0.525720
v -2.645006 1.091423 -0.850640
v -1.908500 1.418206 0.000000
v -3.384725 1.414482 0.000000
vn 0.1849 0.0000 -0.9828
vn 0.6301 0.1984 0.7508
vn 0.9271 0.3462 0.1437
vn -0.7713 0.4250 -0.4739
vn -0.1273 -0.9048 0.4063
vn 0.0000 -1.0000 0.0000
vn -0.8569 0.2732 0.4372
vn 0.1453 -0.3562 -0.9230
vn -0.2275 -0.3606 -0.9046
vn -0.4955 0.2369 0.8357
vn 0.0442 -0.8996 0.4344
vn -0.8857 0.4464 0.1274
vn 0.8094 0.3289 -0.4866
vn 0.9430 0.2263 0.2439
vn -0.2143 -0.0000 -0.9768
vn 0.0000 0.0000 -1.0000
vn 0.8023 0.2128 0.5577
vn 0.9235 0.3457 -0.1665
vn -0.8705 0.4435 -0.2137
vn -0.0490 -0.8998 0.4335
vn -0.7039 0.2561 0.6625
vn -0.0273 -0.3533 -0.9351
vn -0.0875 -0.1629 -0.9828
vn -0.1235 -0.6489 0.7508
vn -0.1338 -0.9805 0.1437
vn 0.7394 0.4783 -0.4739
vn -0.7368 0.5404 0.4063
vn -0.8809 0.4733 0.0000
vn 0.6462 0.6255 0.4372
vn -0.3826 0.0406 -0.9230
vn 0.1849 0.0000 0.9828
vn 0.6301 0.1984 -0.7508
vn 0.9271 0.3462 -0.1437
vn -0.7713 0.4250 0.4739
vn -0.1273 -0.9048 -0.4063
vn -0.8569 0.2732 -0.4372
vn 0.1453 -0.3562 0.9230
vn -0.2275 -0.3606 0.9046
vn -0.4955 0.2369 -0.8357
vn 0.0442 -0.8996 -0.4344
vn -0.8857 0.4464 -0.1274
vn 0.8094 0.3289 0.4866
vn 0.9430 0.2263 -0.2439
vn -0.2143 -0.0000 0.9768
vn 0.0000 0.0000 1.0000
vn 0.8023 0.2128 -0.5577
vn 0.9235 0.3457 0.1665
vn -0.8705 0.4435 0.2137
vn -0.0490 -0.8998 -0.4335
vn -0.7039 0.2561 -0.6625
vn -0.0273 -0.3533 0.9351
vn -0.0875 -0.1629 0.9828
vn -0.1235 -0.6489 -0.7508
vn -0.1338 -0.9805 -0.1437
vn 0.7394 0.4783 0.4739
vn -0.7368 0.5404 -0.4063
vn 0.6462 0.6255 -0.4372
vn -0.3826 0.0406 0.9230
vn 0.4517 -0.6297 0.6320
vn 0.3002 -0.5004 -0.8121
vn 0.0024 -0.9342 0.3568
vn 0.0024 -0.9342 -0.3568
vn 0.4517 -0.6297 -0.6320
vn 0.3002 -0.5004 0.8121
vn -0.4479 -0.6333 0.6311
vn -0.4479 -0.6333 -0.6311
vn 0.2625 0.0013 -0.9649
vn 0.4479 0.6333 0.6311
vn -0.2625 -0.0013 -0.9649
vn 0.4479 0.6333 -0.6311
vn -0.0024 0.9342 0.3568
vn -0.4517 0.6297 0.6320
vn -0.4517 0.6297 -0.6320
vn -0.0024 0.9342 -0.3568
vn 0.8834 -0.4687 0.0000
vn 0.8792 0.4765 0.0000
vn 0.2625 0.0013 0.9649
vn -0.2625 -0.0013 0.9649
vn -0.3002 0.5004 0.8121
vn -0.3002 0.5004 -0.8121
vn 0.4662 -0.6128 0.6381
vn 0.3729 0.4809 -0.7935
vn 0.4662 -0.6128 -0.6381
vn 0.3729 0.4809 0.7935
vn 0.2736 0.0014 0.9619
vn 0.2736 0.0014 -0.9619
vn 0.4623 0.6167 0.6372
vn -0.8792 -0.4765 0.0000
vn 0.4623 0.6167 -0.6372
vn -0.8834 0.4687 0.0000
vn -0.3840 -0.4952 0.7793
vn -0.3840 -0.4952 -0.7793
usemtl None
s off
f 1//1 3//1 2//1
f 4//2 6//2 9//2 7//2
f 2//3 3//3 6//3 4//3
f 3//4 1//4 5//4 6//4
f 1//5 2//5 4//5 5//5
f 8//6 7//6 9//6
f 6//7 5//7 8//7 9//7
f 5//8 4//8 7//8 8//8
f 14//9 15//9 12//9 11//9
f 13//10 14//10 11//10 10//10
f 11//6 12//6 10//6
f 18//11 17//11 15//11 14//11
f 16//12 18//12 14//12 13//12
f 17//13 16//13 13//13 15//13
f 15//14 13//14 10//14 12//14
f 18//15 16//15 17//15
f 19//16 21//16 20//16
f 22//17 24//17 27//17 25//17
f 20//18 21//18 24//18 22//18
f 21//19 19//19 23//19 24//19
f 19//20 20//20 22//20 23//20
f 26//6 25//6 27//6
f 24//21 23//21 26//21 27//21
f 23//22 22//22 25//22 26//22
f 28//23 30//23 29//23
f 31//24 33//24 36//24 34//24
f 29//25 30//25 33//25 31//25
f 30//26 28//26 32//26 33//26
f 28//27 29//27 31//27 32//27
f 35//28 34//28 36//28
f 33//29 32//29 35//29 36//29
f 32//30 31//30 34//30 35//30
f 37//31 38//31 39//31
f 40//32 43//32 45//32 42//32
f 38//33 40//33 42//33 39//33
f 39//34 42//34 41//34 37//34
f 37//35 41//35 40//35 38//35
f 44//6 45//6 43//6
f 42//36 45//36 44//36 41//36
f 41//37 44//37 43//37 40//37
f 50//38 47//38 48//38 51//38
f 49//39 46//39 47//39 50//39
f 47//6 46//6 48//6
f 54//40 50//40 51//40 53//40
f 52//41 49//41 50//41 54//41
f 53//42 51//42 49//42 52//42
f 51//43 48//43 46//43 49//43
f 54//44 53//44 52//44
f 55//45 56//45 57//45
f 58//46 61//46 63//46 60//46
f 56//47 58//47 60//47 57//47
f 57//48 60//48 59//48 55//48
f 55//49 59//49 58//49 56//49
f 62//6 63//6 61//6
f 60//50 63//50 62//50 59//50
f 59//51 62//51 61//51 58//51
f 64//52 65//52 66//52
f 67//53 70//53 72//53 69//53
f 65//54 67//54 69//54 66//54
f 66//55 69//55 68//55 64//55
f 64//56 68//56 67//56 65//56
f 71//28 72//28 70//28
f 69//57 72//57 71//57 68//57
f 68//58 71//58 70//58 67//58
f 73//59 74//59 75//59
f 78//60 93//60 88//60 73//60
f 73//61 75//61 76//61
f 73//62 76//62 77//62
f 73//63 77//63 78//63
f 73//64 88//64 92//64 74//64
f 76//65 75//65 80//65
f 77//66 76//66 81//66
f 78//67 77//67 82//67
f 74//68 83//68 79//68
f 77//69 81//69 82//69
f 78//70 82//70 83//70
f 79//71 83//71 84//71
f 80//72 79//72 84//72
f 82//73 81//73 84//73
f 83//74 82//74 84//74
f 85//59 86//59 87//59
f 86//75 85//75 90//75
f 85//61 87//61 88//61
f 85//62 88//62 89//62
f 85//63 89//63 90//63
f 86//76 90//76 95//76
f 87//77 86//77 91//77
f 88//65 87//65 92//65
f 89//66 88//66 93//66
f 90//67 89//67 94//67
f 86//68 95//68 91//68
f 87//78 91//78 92//78
f 96//79 83//79 74//79 92//79
f 89//69 93//69 94//69
f 90//70 94//70 95//70
f 91//71 95//71 96//71
f 92//72 91//72 96//72
f 96//80 93//80 78//80 83//80
f 94//73 93//73 96//73
f 95//74 94//74 96//74
f 97//81 98//81 99//81
f 84//82 81//82 102//82 107//82
f 97//61 99//61 100//61
f 97//62 100//62 101//62
f 97//83 101//83 102//83
f 80//84 84//84 107//84 98//84
f 99//85 98//85 103//85
f 100//65 99//65 104//65
f 101//66 100//66 105//66
f 102//86 101//86 106//86
f 98//87 107//87 103//87
f 99//78 103//78 104//78
f 100//88 104//88 105//88
f 101//69 105//69 106//69
f 102//89 106//89 107//89
f 103//71 107//71 108//71
f 104//72 103//72 108//72
f 105//90 104//90 108//90
f 106//73 105//73 108//73
f 107//74 106//74 108//74
f 80//91 98//91 97//91 76//91
f 81//92 76//92 97//92 102//92
f 75//78 79//78 80//78
f 75//77 74//77 79//77
